<svg width="809" height="800" viewBox="0 0 809 800" fill="none" xmlns="http://www.w3.org/2000/svg">
<path d="M537.536 196.179C538.109 195.215 545.795 187.954 547.024 186.769C568.604 165.99 591.225 146.318 614.799 127.831C620 123.828 629.177 116.447 634.516 113.158C632.457 117.547 624.746 118.985 624.658 123.285C625.614 124.684 626.038 125.052 626.028 126.839C628.582 126.893 632.446 120.365 634.221 121.925C629.522 126.234 621.524 132.137 616.335 136.283C608.894 142.297 601.618 148.512 594.515 154.921C582.073 165.924 569.886 177.212 557.964 188.776C552.605 193.89 545.434 201.29 540.16 205.94C539.455 206.943 533.038 213.512 531.828 214.772C525.606 221.204 519.431 227.682 513.306 234.206C495.708 253.203 475.905 275.942 459.228 295.857C447.638 309.978 436.382 324.368 425.469 339.018C389.129 387.343 355.36 437.549 324.303 489.428C306.194 519.528 288.445 551.275 272.247 582.49C270.752 585.371 269.98 595.39 269.289 599.299C268.027 606.186 266.264 612.971 264.015 619.601C245.519 673.83 216.801 715.085 175.43 753.984C231.393 775.755 272.02 723.524 305.433 687.18C312.485 679.51 320.372 670.129 326.226 661.606C328.23 658.689 330.766 648.537 332.334 644.42C336.576 633.527 341.141 622.763 346.022 612.142C364.682 571.433 417.491 488.285 460.194 472.68C483.734 464.078 514.303 469.424 536.419 479.842C507.317 507.963 497.688 527.256 476.817 561.528C467.374 577.031 457.443 592.231 447.038 607.105C424.721 638.916 401.718 669.354 374.238 696.896C368.751 702.394 362.886 708.22 357.743 714.005C356.634 720.606 356.631 728.045 358.469 734.52C360.535 741.801 365.082 747.625 371.755 751.187C381.545 756.413 392.128 754.391 401.2 748.956C445.091 722.663 501.147 604.581 527.774 557.104C542.169 531.436 557.766 504.597 577.136 482.353C595.582 461.17 619.516 443.463 646.603 435.272C680.147 425.128 720.033 429.175 750.879 445.868C773.729 458.234 790.91 477.315 798.306 502.436C805.683 528.333 802.524 556.096 789.518 579.673C775.428 605.027 751.857 623.757 723.976 631.755C705.997 636.888 682.349 637.759 665.207 628.53C647.948 619.237 641.373 600.915 651.633 583.431C654.5 578.487 658.573 574.352 663.473 571.41C684.101 559.044 703.742 575.011 725.473 568.539C737.772 564.876 748.136 558.106 754.551 546.802C759.68 537.854 761.01 527.225 758.245 517.289C749.845 487.768 714.013 479.509 687.823 487.772C636.736 503.891 611.209 562.47 589.838 606.788C582.693 621.759 575.103 636.514 567.077 651.031C535.438 707.633 489.117 774.26 423.654 794.072C380.863 807.023 328.314 791.736 315.41 744.606C268.062 788.867 203.429 823.948 144.432 776.892C131.376 784.926 116.198 788.832 100.885 788.097C79.7834 786.915 62.9324 775.199 49.2054 759.854C13.1174 719.514 -2.5326 656.021 0.331397 602.936C3.5924 542.5 34.0214 487.381 78.6744 447.368C86.1314 440.686 104.977 425.343 113.733 422.903C121.885 420.632 197.405 426.68 212.096 427.499C207.853 433.616 201.052 440.046 195.81 445.5C189.805 451.858 183.841 458.256 177.919 464.693C154.626 489.922 132.579 517.281 115.102 547.73C89.2364 594.085 66.0074 653.923 78.2294 707.575C84.0124 732.96 100.741 748.5 127.163 740.954C126.624 714.005 137.047 687.909 149.118 664.15C167.669 627.638 211.144 568.695 251.094 555.68C257.487 546.886 265.697 532.838 271.855 523.321C285.623 501.904 299.764 480.728 314.27 459.804C366.152 384.826 423.657 313.9 486.29 247.639C497.686 235.684 508.776 223.884 520.739 212.465C526.322 207.135 531.759 201.285 537.536 196.179Z" fill="#FBF7EF"/>
<path d="M629.186 53.2211C641.066 30.6521 656.572 10.6411 681.929 3.25105C730.317 -10.6529 789.09 21.642 804.004 69.608C807.452 80.695 810.696 91.6451 804.626 102.305C790.894 126.42 769.34 138.623 742.461 142.198C759.946 148.621 778.44 139.243 792.906 129.907C789.897 150.859 783.896 166.472 766.738 180.571C752.771 193.339 735.552 202.005 716.976 205.617C710.67 206.89 704.858 207.588 698.467 207.845C697.478 207.885 697.033 208.124 696.452 208.827C697.222 210.18 698.935 210.827 700.411 211.174C723.634 216.634 745.381 208.877 765.468 198.988C746.754 238.459 703.793 275.212 660.102 282.331C648.155 284.791 633.38 284.951 621.096 285.972L620.743 286.431C623.203 289.644 640.902 291.289 645.185 291.766C661.378 293.571 675.99 290.074 691.356 285.496C645.761 333.266 591.447 362.246 526.033 373.497C511.56 375.986 497.662 376.258 483.566 378.329C488.161 380.114 496.146 380.916 501.242 381.378C518.551 382.986 536 382.142 553.072 378.869C561.175 377.304 569.101 375.106 577.266 373.55C554.71 391.367 530.748 404.117 504.61 415.935C464.052 434.273 420.2 443.234 380.826 464.465C378.52 465.709 371.217 468.698 370.007 470.615L370.532 471.184C373.282 471.399 377.339 469.997 380.051 469.349C397.372 465.216 415.295 458.752 432.979 456.792C426.605 460.759 416.151 465.375 409.214 468.682L371.352 486.756C354.999 494.558 342.018 502.44 326.422 510.836C330.207 502.54 337.244 490.946 342.016 483.085C349.931 470.075 357.978 457.145 366.156 444.299C377.959 425.652 389.853 406.372 402.043 388.021C426.64 350.916 453.033 315.033 481.127 280.499C491.276 268.093 505.813 249.865 517 238.712C517.729 237.365 529.422 225.047 531.388 222.96C549.719 203.175 568.692 183.995 588.276 165.45C597.968 156.189 612.229 142.651 622.962 134.723C623.506 133.953 630.034 128.542 631.174 127.598C647.891 113.852 665.205 100.848 683.067 88.6261L682.634 87.619C671.523 94.779 660.641 102.288 650.002 110.133C646.055 113.026 637.853 119.664 634.223 121.924C632.448 120.364 628.584 126.892 626.03 126.838C626.04 125.051 625.616 124.683 624.66 123.284C624.748 118.984 632.459 117.546 634.518 113.157C637.727 108.178 689.995 76.9121 699.628 71.7081C697.105 71.7511 694.417 73.5511 692.171 74.7221C650.42 96.4831 612.011 124.431 575.299 153.688C563.562 163.203 550.974 173.105 539.892 183.296L518.34 203.414C515.487 206.093 511.063 210.579 508.199 212.89C508.511 209.818 511.555 209.675 511.801 207.53C510.18 207.496 510.164 207.658 508.594 208.155L508.135 207.646L508.674 206.056C506.092 203.376 504.416 205.605 502.107 203.644C500.089 201.929 498.054 197.18 496.075 195.319C494.794 194.115 492.414 194.196 490.672 192.932C484.787 188.167 478.803 183.159 472.614 178.802C469.783 176.81 465.12 175.232 461.943 173.63C456.604 170.939 451.01 168.554 445.595 166.001C441.32 163.986 437.328 161.032 433.051 159.167C428.524 157.193 421.291 157.696 417.183 154.949C442.312 116.997 485.903 79.5921 525.151 56.9851C511.5 89.1491 505.018 99.4781 505.075 137.008C510.479 123.356 515.05 106.48 523.802 94.063C525.681 89.623 531.233 81.8481 534.159 77.7681C552.802 51.7621 579.953 29.4081 609.742 17.4321C622.888 12.2961 636.634 8.85006 650.648 7.17906C636.643 23.5201 633.399 31.8301 629.186 53.2211Z" fill="url(#paint0_linear_1026_28072)"/>
<path d="M733.764 54.5098L735.251 55.3008C731.253 57.5078 707.788 70.6928 704.954 73.3148C699.709 76.3518 687.301 83.8678 682.63 87.6198C671.519 94.7798 660.637 102.289 649.998 110.134C646.051 113.027 637.849 119.665 634.219 121.925C632.444 120.365 628.58 126.893 626.026 126.839C626.036 125.052 625.612 124.684 624.656 123.285C624.744 118.985 632.455 117.547 634.514 113.158C637.723 108.179 689.991 76.9128 699.624 71.7088C700.223 71.5298 709.084 66.8988 710.189 66.3318C717.99 62.2768 725.849 58.3358 733.764 54.5098Z" fill="#F7EE83"/>
<path d="M733.766 54.5108C736.676 53.1848 739.468 51.7998 742.543 50.9238C740.278 52.3348 737.598 54.1188 735.253 55.3018L733.766 54.5108Z" fill="#E3C576"/>
<path d="M417.181 154.949C421.289 157.696 428.522 157.193 433.049 159.167C437.326 161.032 441.318 163.986 445.593 166.001C451.008 168.554 456.602 170.939 461.941 173.63C465.118 175.232 469.782 176.81 472.613 178.802C478.802 183.159 484.786 188.167 490.671 192.932C492.413 194.196 494.793 194.115 496.074 195.319C498.053 197.18 500.087 201.929 502.105 203.644C504.414 205.605 506.091 203.376 508.673 206.056L508.134 207.646L508.592 208.155C510.162 207.658 510.178 207.496 511.799 207.53C511.553 209.675 508.509 209.818 508.197 212.89C506.574 214.676 497.026 224.272 495.585 225.153C491.53 230.343 477.255 244.45 471.785 250.32C457.432 265.822 443.44 281.656 429.822 297.807C386.171 349.582 347.582 405.039 308.729 460.399C297.71 476.099 287.174 491.961 277.312 508.414C277.438 492.315 278.977 475.972 280 459.868C281.722 432.744 283.171 404.868 289.404 378.339C290.554 373.444 294.589 358.373 298.763 355.804C299.461 357.641 299.148 361.916 299.165 363.971C299.254 374.4 301.801 427.141 308.008 432.787C308.75 431.843 309.031 429.328 309.061 428.115C310.105 385.396 311.306 343.639 324.396 302.557C334.111 272.068 346.99 252.03 366.654 227.502C360.065 261.627 359.242 287.99 362.211 322.545C362.445 325.274 362.245 329.282 364.237 331.063C367.585 330.131 369.225 301.093 370.22 295.75C376.602 261.472 383.744 211.853 401.767 181.314L402.281 180.459C405.465 172.672 412.541 161.895 417.181 154.949Z" fill="url(#paint1_linear_1026_28072)"/>
<defs>
<linearGradient id="paint0_linear_1026_28072" x1="654.812" y1="-19.2382" x2="484.492" y2="556.171" gradientUnits="userSpaceOnUse">
<stop stop-color="#BE1737"/>
<stop offset="1" stop-color="#49FF75"/>
</linearGradient>
<linearGradient id="paint1_linear_1026_28072" x1="446.208" y1="190.387" x2="286.216" y2="510.146" gradientUnits="userSpaceOnUse">
<stop stop-color="#749457"/>
<stop offset="1" stop-color="#75D86E"/>
</linearGradient>
</defs>
</svg>
